#!OML:ASF F:\VICON\USERDATA\INSTALL\Justin_Nancy\Justin_Nancy.ASF
:FULLY-SPECIFIED
:DEGREES
413
root -18.8835 17.1944 21.2028 -2.09658 -43.6655 5.29648
lowerback 4.8798 -2.60604 -5.39321
upperback -0.377259 -3.73175 2.19759
thorax -2.63572 -1.77244 5.56117
lowerneck -15.1888 -3.47174 -8.9669
upperneck 22.8659 -3.71229 4.02321
head 10.04 -2.09454 2.41918
rclavicle 1.92821e-014 -1.59028e-015
rhumerus -39.3843 -23.1841 -70.9979
rradius 25.1468
rwrist 10.9446
rhand -13.6608 11.9865
rfingers 7.12502
rthumb 12.4562 -17.6223
lclavicle 1.92821e-014 -1.59028e-015
lhumerus -24.9015 8.38657 83.3262
lradius 30.0453
lwrist -8.62715
lhand -17.5881 23.899
lfingers 7.12502
lthumb 8.66782 53.7011
rfemur -23.3856 4.643 17.2837
rtibia 10.3299
rfoot -0.88702 -7.2838
rtoes -15.0806
lfemur 9.38271 -3.69617 -27.9868
ltibia 23.8964
lfoot -12.5921 -1.49072
ltoes -22.9284
414
root -19.0175 17.2348 21.306 -1.59124 -43.6192 4.56397
lowerback 5.07457 -2.49254 -4.85531
upperback -0.664985 -3.5562 2.34456
thorax -3.09017 -1.66961 5.42414
lowerneck -14.4377 -3.50106 -9.04144
upperneck 22.8697 -3.83544 4.08615
head 9.9106 -2.16325 2.44454
rclavicle 1.5704e-014 -4.13472e-014
rhumerus -40.1483 -24.3298 -69.8485
rradius 24.7704
rwrist 12.1796
rhand -13.2433 12.5151
rfingers 7.12502
rthumb 12.8586 -17.0688
lclavicle 1.5704e-014 -4.13472e-014
lhumerus -25.3666 8.24856 83.5099
lradius 29.7607
lwrist -8.59264
lhand -17.6297 23.7458
lfingers 7.12502
lthumb 8.62766 53.5495
rfemur -22.7209 5.73208 17.496
rtibia 10.013
rfoot 0.168254 -6.67861
rtoes -14.5575
lfemur 9.18622 -4.17534 -27.3914
ltibia 24.9987
lfoot -11.3083 -1.99153
ltoes -23.2289
415
root -19.1492 17.2721 21.4143 -1.08393 -43.7443 3.62105
lowerback 5.16162 -2.4346 -4.12681
upperback -0.573681 -3.43167 2.51214
thorax -3.09116 -1.62153 5.18163
lowerneck -14.7421 -3.50406 -8.87724
upperneck 23.0567 -3.82805 3.9775
head 10.0288 -2.15689 2.37804
rclavicle 6.98231e-014 1.66979e-014
rhumerus -40.1948 -24.3785 -69.6233
rradius 24.6824
rwrist 12.172
rhand -13.0112 12.6733
rfingers 7.12502
rthumb 13.0824 -16.8964
lclavicle 6.98231e-014 1.66979e-014
lhumerus -25.2092 8.63868 83.5105
lradius 29.3523
lwrist -8.74483
lhand -17.8563 23.7251
lfingers 7.12502
lthumb 8.40899 53.5377
rfemur -21.8459 5.98527 18.3021
rtibia 9.71565
rfoot 0.78809 -4.97752
rtoes -13.5469
lfemur 9.00815 -4.58007 -26.6814
ltibia 26.3362
lfoot -9.94674 -2.56732
ltoes -23.8576
416
root -19.29 17.2969 21.539 -0.830604 -43.7567 2.89457
lowerback 4.93157 -2.41742 -3.50311
upperback -0.259314 -3.36212 2.59675
thorax -2.674 -1.6152 4.88847
lowerneck -15.4862 -3.64087 -8.66586
upperneck 23.4996 -3.99331 3.89383
head 10.3359 -2.22109 2.28577
rclavicle 5.76476e-015 -3.97569e-014
rhumerus -39.97 -24.1937 -69.8633
rradius 24.7279
rwrist 11.816
rhand -13.1585 12.4493
rfingers 7.12502
rthumb 12.9404 -17.1294
lclavicle 5.76476e-015 -3.97569e-014
lhumerus -24.9578 9.39009 83.4588
lradius 28.9693
lwrist -9.44186
lhand -17.7884 23.7189
lfingers 7.12502
lthumb 8.47455 53.5288
rfemur -20.8353 6.10754 18.8979
rtibia 9.54488
rfoot 1.45784 -4.08101
rtoes -12.3585
lfemur 8.91631 -4.93186 -26.1953
ltibia 27.9041
lfoot -8.40566 -3.09632
ltoes -26.2856
417
root -19.4287 17.3036 21.6617 -0.71955 -43.785 2.48898
lowerback 4.84958 -2.33832 -3.14466
upperback -0.197227 -3.23282 2.66654
thorax -2.59325 -1.5588 4.74443
lowerneck -15.6364 -3.69411 -8.66468
upperneck 23.813 -4.06725 3.89419
head 10.4843 -2.25897 2.27581
rclavicle -1.54058e-014 1.66979e-014
rhumerus -40.0346 -24.8026 -69.4633
rradius 24.3945
rwrist 12.2936
rhand -13.5847 11.9169
rfingers 7.12502
rthumb 12.5296 -17.6874
lclavicle -1.54058e-014 1.66979e-014
lhumerus -25.0797 9.75315 83.5444
lradius 28.5844
lwrist -9.63755
lhand -17.6529 23.6262
lfingers 7.12502
lthumb 8.60533 53.4309
rfemur -19.9898 6.24404 19.2629
rtibia 9.60693
rfoot 2.02478 -4.08097
rtoes -10.7223
lfemur 8.65189 -4.98879 -25.8786
ltibia 29.5399
lfoot -6.79548 -3.66793
ltoes -29.2256
418
root -19.5578 17.3098 21.7749 -0.540793 -43.9702 2.04992
lowerback 5.02288 -2.20695 -2.76481
upperback -0.247595 -3.03681 2.74458
thorax -2.7782 -1.46058 4.61019
lowerneck -15.5984 -3.65523 -8.62751
upperneck 23.9544 -4.00842 3.80281
head 10.5217 -2.24301 2.2464
rclavicle -8.39865e-015 -2.38542e-015
rhumerus -40.1445 -24.9025 -69.2872
rradius 24.2335
rwrist 12.0612
rhand -14.0859 11.3206
rfingers 7.12502
rthumb 12.0463 -18.3127
lclavicle -8.39865e-015 -2.38542e-015
lhumerus -25.2985 9.85912 83.5786
lradius 28.2209
lwrist -9.40671
lhand -17.5546 23.3415
lfingers 7.12502
lthumb 8.70021 53.1422
rfemur -19.4895 6.55308 19.6855
rtibia 10.0813
rfoot 2.4773 -4.21703
rtoes -9.60634
lfemur 8.16084 -4.75912 -25.4409
ltibia 31.1731
lfoot -5.13467 -4.41411
ltoes -31.4945
419
root -19.6863 17.3325 21.8917 -0.593426 -44.1499 2.00128
lowerback 4.84683 -2.10804 -2.59753
upperback -0.107797 -2.8945 2.69849
thorax -2.55937 -1.39943 4.44527
lowerneck -15.753 -3.65134 -8.5103
upperneck 23.982 -4.00257 3.7427
head 10.5569 -2.23453 2.20459
rclavicle -1.9133e-014 3.18055e-015
rhumerus -39.9282 -24.427 -69.7469
rradius 24.3965
rwrist 11.1687
rhand -14.402 10.8708
rfingers 7.12502
rthumb 11.7414 -18.7801
lclavicle -1.9133e-014 3.18055e-015
lhumerus -25.3902 10.4263 83.5015
lradius 28.0588
lwrist -9.76344
lhand -17.1433 23.5183
lfingers 7.12502
lthumb 9.09704 53.3021
rfemur -19.3657 5.63317 20.1162
rtibia 11.0131
rfoot 2.52975 -2.27073
rtoes -13.2097
lfemur 7.51147 -4.68031 -25.3091
ltibia 32.7857
lfoot -2.76923 -5.37599
ltoes -30.3995
420
root -19.8163 17.361 22.0076 -0.880959 -44.2915 2.20339
lowerback 4.80246 -2.03903 -2.58532
upperback -0.0339948 -2.80313 2.62239
thorax -2.47123 -1.35726 4.34914
lowerneck -15.605 -3.64008 -8.74197
upperneck 23.7632 -4.01355 4.06258
head 10.461 -2.22049 2.35711
rclavicle 4.88513e-014 -1.11319e-014
rhumerus -39.9874 -24.4021 -69.6816
rradius 24.4854
rwrist 11.3328
rhand -13.8637 11.6709
rfingers 7.12502
rthumb 12.2606 -17.9497
lclavicle 4.88513e-014 -1.11319e-014
lhumerus -25.7595 11.1605 83.4117
lradius 28.0503
lwrist -10.1634
lhand -16.7607 23.7851
lfingers 7.12502
lthumb 9.46623 53.5525
rfemur -19.1472 4.51155 20.3291
rtibia 11.9146
rfoot 2.02558 -0.538355
rtoes -15.2874
lfemur 6.82233 -4.65191 -25.3764
ltibia 34.4474
lfoot 0.200481 -6.14459
ltoes -27.5678
421
root -19.9458 17.3799 22.1135 -1.4061 -44.4434 2.7925
lowerback 5.13218 -1.9019 -2.91781
upperback -0.216207 -2.64689 2.46465
thorax -2.85178 -1.26307 4.38372
lowerneck -15.3136 -3.60372 -8.85621
upperneck 23.8016 -4.01744 4.25985
head 10.4254 -2.21546 2.44998
rclavicle -5.27773e-014 -1.27222e-014
rhumerus -40.4953 -24.3973 -69.3219
rradius 24.5353
rwrist 11.744
rhand -13.2677 13.0218
rfingers 7.12502
rthumb 12.8351 -16.5636
lclavicle -5.27773e-014 -1.27222e-014
lhumerus -26.4418 11.3388 83.3551
lradius 28.0811
lwrist -10.109
lhand -16.2772 23.8973
lfingers 7.12502
lthumb 9.93277 53.6429
rfemur -18.8468 3.92249 20.1135
rtibia 12.6071
rfoot 1.63392 -0.0412269
rtoes -14.5721
lfemur 5.97327 -4.48809 -25.6714
ltibia 36.1544
lfoot 3.22925 -6.84159
ltoes -24.9762
422
root -20.0744 17.3988 22.2147 -1.39478 -44.6587 2.88039
lowerback 5.13175 -1.74666 -2.96577
upperback -0.263346 -2.44358 2.40792
thorax -2.92034 -1.15858 4.3394
lowerneck -15.7333 -3.60607 -8.45907
upperneck 24.209 -4.02865 3.98174
head 10.6407 -2.21839 2.28067
rclavicle -3.24019e-014 -4.77083e-014
rhumerus -40.6507 -23.9096 -69.515
rradius 24.8621
rwrist 11.2919
rhand -13.2742 12.5573
rfingers 7.12502
rthumb 12.8289 -17.0285
lclavicle -3.24019e-014 -4.77083e-014
lhumerus -26.8569 11.495 83.3579
lradius 28.2153
lwrist -10.0627
lhand -16.0297 24.438
lfingers 7.12502
lthumb 10.1715 54.1721
rfemur -18.5972 3.84499 20.2294
rtibia 13.0559
rfoot 1.48804 0.350293
rtoes -13.5606
lfemur 4.76934 -4.36051 -25.4724
ltibia 37.9481
lfoot 6.38335 -7.57179
ltoes -21.1316
423
root -20.2026 17.4183 22.3193 -1.08323 -44.9788 2.39585
lowerback 4.97494 -1.60968 -2.57566
upperback -0.0889946 -2.23552 2.42707
thorax -2.68569 -1.06864 4.11379
lowerneck -16.2249 -3.65341 -8.21617
upperneck 24.3023 -4.0645 3.79517
head 10.763 -2.22787 2.16283
rclavicle -4.97956e-014 0
rhumerus -40.3559 -23.6831 -69.9316
rradius 25.1118
rwrist 10.5643
rhand -12.9281 11.7697
rfingers 7.12502
rthumb 13.1625 -17.7948
lclavicle -4.97956e-014 0
lhumerus -26.9864 11.6637 83.3363
lradius 28.2679
lwrist -10.0848
lhand -15.5119 24.5674
lfingers 7.12502
lthumb 10.671 54.2764
rfemur -17.9093 4.4192 20.698
rtibia 13.0337
rfoot 1.52101 0.701402
rtoes -11.2977
lfemur 3.57321 -4.48168 -24.9032
ltibia 39.9225
lfoot 9.63119 -8.04658
ltoes -15.9433
